<svg width="100%" height="100%" id="svg" viewBox="0 0 1440 590" xmlns="http://www.w3.org/2000/svg" class="transition duration-300 ease-in-out delay-150"><defs><linearGradient id="gradient" x1="0%" y1="50%" x2="100%" y2="50%"><stop offset="5%" stop-color="#e63946"></stop><stop offset="95%" stop-color="#a8dadc"></stop></linearGradient></defs><path d="M 0,600 C 0,600 0,120 0,120 C 86.22966507177034,133.6267942583732 172.45933014354068,147.25358851674642 270,143 C 367.5406698564593,138.74641148325358 476.3923444976076,116.61244019138756 592,97 C 707.6076555023924,77.38755980861244 829.9712918660288,60.29665071770336 916,78 C 1002.0287081339712,95.70334928229664 1051.7224880382776,148.20095693779905 1133,161 C 1214.2775119617224,173.79904306220095 1327.1387559808613,146.89952153110048 1440,120 C 1440,120 1440,600 1440,600 Z" stroke="none" stroke-width="0" fill="url(#gradient)" fill-opacity="0.265" class="transition-all duration-300 ease-in-out delay-150 path-0"></path><defs><linearGradient id="gradient" x1="0%" y1="50%" x2="100%" y2="50%"><stop offset="5%" stop-color="#e63946"></stop><stop offset="95%" stop-color="#a8dadc"></stop></linearGradient></defs><path d="M 0,600 C 0,600 0,240 0,240 C 119.2153110047847,255.22488038277513 238.4306220095694,270.44976076555025 336,257 C 433.5693779904306,243.55023923444975 509.4928229665072,201.42583732057415 588,195 C 666.5071770334928,188.57416267942585 747.5980861244019,217.8468899521531 832,232 C 916.4019138755981,246.1531100478469 1004.1148325358852,245.1866028708134 1106,244 C 1207.8851674641148,242.8133971291866 1323.9425837320573,241.40669856459328 1440,240 C 1440,240 1440,600 1440,600 Z" stroke="none" stroke-width="0" fill="url(#gradient)" fill-opacity="0.4" class="transition-all duration-300 ease-in-out delay-150 path-1"></path><defs><linearGradient id="gradient" x1="0%" y1="50%" x2="100%" y2="50%"><stop offset="5%" stop-color="#e63946"></stop><stop offset="95%" stop-color="#a8dadc"></stop></linearGradient></defs><path d="M 0,600 C 0,600 0,360 0,360 C 108.72727272727272,376.26794258373207 217.45454545454544,392.53588516746413 308,397 C 398.54545454545456,401.46411483253587 470.9090909090909,394.1244019138756 564,395 C 657.0909090909091,395.8755980861244 770.9090909090911,404.9665071770335 878,404 C 985.0909090909089,403.0334928229665 1085.4545454545453,392.00956937799043 1178,383 C 1270.5454545454547,373.99043062200957 1355.2727272727275,366.9952153110048 1440,360 C 1440,360 1440,600 1440,600 Z" stroke="none" stroke-width="0" fill="url(#gradient)" fill-opacity="0.53" class="transition-all duration-300 ease-in-out delay-150 path-2"></path><defs><linearGradient id="gradient" x1="0%" y1="50%" x2="100%" y2="50%"><stop offset="5%" stop-color="#e63946"></stop><stop offset="95%" stop-color="#a8dadc"></stop></linearGradient></defs><path d="M 0,600 C 0,600 0,480 0,480 C 96.17224880382778,492.57416267942585 192.34449760765557,505.14832535885165 293,504 C 393.65550239234443,502.85167464114835 498.7942583732057,487.98086124401914 609,484 C 719.2057416267943,480.01913875598086 834.4784688995215,486.9282296650718 914,495 C 993.5215311004785,503.0717703349282 1037.2918660287082,512.3062200956938 1119,510 C 1200.7081339712918,507.6937799043062 1320.3540669856459,493.8468899521531 1440,480 C 1440,480 1440,600 1440,600 Z" stroke="none" stroke-width="0" fill="url(#gradient)" fill-opacity="1" class="transition-all duration-300 ease-in-out delay-150 path-3"></path></svg>